<?xml version="1.0" encoding="UTF-8"?>
<!-- Generator: visioncortex VTracer 0.6.2 -->
<svg version="1.1" xmlns="http://www.w3.org/2000/svg" width="1280" height="396">
<path d="M0 0 C11.33157621 5.11031868 17.50729648 18.04714603 22 29 C23.22104091 32.6345365 24.23595338 36.24343747 25 40 C22.525 40.495 22.525 40.495 20 41 C15.93310122 36.37152499 13.61241955 31.34483818 11.08789062 25.79492188 C8.72629727 20.83417843 6.27327977 17.28947385 0.9375 15.1875 C-1.39384469 14.961886 -2.8134267 15.13914437 -5 16 C-6.1052209 17.94292599 -6.1052209 17.94292599 -6.6875 20.3125 C-7.03361328 21.48232422 -7.03361328 21.48232422 -7.38671875 22.67578125 C-7.58910156 23.44277344 -7.79148438 24.20976562 -8 25 C-8.18691406 25.62132813 -8.37382812 26.24265625 -8.56640625 26.8828125 C-12.27100549 44.97193673 -3.63745871 63.22121917 6 78 C11.13497812 85.16896295 17.17948975 91.55123213 23.19921875 97.97265625 C25.34601442 100.270824 27.3787106 102.63157545 29.375 105.0625 C52.65135326 131.75197236 92.11087046 152.50358006 126 161 C127.98024359 161.53771628 129.95943425 162.07932669 131.9375 162.625 C135.4584051 163.59175042 135.4584051 163.59175042 139.00390625 164.4609375 C141 165 141 165 143.36328125 166.00390625 C146.33472176 167.12645044 149.03644997 167.54220699 152.1875 167.9375 C156.92284342 168.56394647 161.62397127 169.25986784 166.32792664 170.08885193 C185.95638416 173.50904754 205.50842747 174.46965749 225.39892578 175.10449219 C262.64005686 176.32002843 262.64005686 176.32002843 272 181 C272 181.99 272 182.98 272 184 C269.34017631 184.8866079 267.20401147 185.27644072 264.44140625 185.578125 C208.72364569 189.78228227 208.72364569 189.78228227 161.09765625 214.1328125 C153.87452618 224.26991925 152.61108025 234.59659873 154.62109375 246.7578125 C156.8737961 257.48984837 161.29478217 267.15583819 166 277 C166.48710449 278.03157227 166.97420898 279.06314453 167.47607422 280.12597656 C173.88439311 293.6939754 180.46874632 307.14422576 187.57910156 320.35839844 C189.21228008 323.39465127 190.83674128 326.43549549 192.4609375 329.4765625 C195.32726785 334.83984494 198.20037105 340.19943831 201.07801819 345.55665588 C203.02458587 349.18103948 204.96757491 352.80730803 206.90731812 356.43534851 C208.45712379 359.33292853 210.01012078 362.22879816 211.5625 365.125 C212.12163086 366.17244385 212.68076172 367.2198877 213.25683594 368.29907227 C216.27248724 373.91597246 219.40438212 379.38077966 222.87719727 384.72949219 C224.77272173 388.56258146 224.40591913 391.80550237 224 396 C221.4375 396.5 221.4375 396.5 218 396 C216.59008789 394.65820313 216.59008789 394.65820313 215.09765625 392.78125 C211.86557204 388.92342199 208.44528682 385.35243303 204.875 381.8125 C204.32066788 381.26154663 203.76633575 380.71059326 203.19520569 380.14294434 C201.46549153 378.42657471 199.73319139 376.71285786 198 375 C184.71888595 361.87469791 184.71888595 361.87469791 179.3828125 355.60546875 C177.53051875 353.45492431 175.53632668 351.47554081 173.5 349.5 C170.0928121 346.13885518 166.92541826 342.66298797 163.8125 339.03125 C161.7890712 336.76361428 159.66346653 334.6342305 157.5 332.5 C154.15146918 329.19092999 151.00344109 325.79249043 147.9375 322.22265625 C145.54677041 319.48006525 143.08904056 316.80148697 140.625 314.125 C126.7780116 299.06847124 113.2387227 283.7333806 100.34765625 267.84765625 C97.59051696 264.50330593 94.76833108 261.21945078 91.9375 257.9375 C87.90540728 253.25622527 83.95117668 248.53290873 80.12109375 243.68359375 C78.47768854 241.60436837 76.8237941 239.53561107 75.16015625 237.47265625 C69.40733827 230.33347336 63.7481925 223.1454103 58.3046875 215.765625 C56.7814723 213.7042679 55.24987759 211.64923635 53.71875 209.59375 C43.37974177 195.67902591 33.55769722 181.45978261 24 167 C23.67427002 167.48130371 23.34854004 167.96260742 23.01293945 168.45849609 C3.18993941 197.70373147 -17.89641527 225.98683603 -40.47802734 253.16210938 C-42.54395381 255.65686306 -44.58411333 258.17224507 -46.625 260.6875 C-53.44242569 269.02554108 -60.44051826 277.21961432 -67.6875 285.1875 C-70.62242751 288.41539711 -73.40416026 291.71508353 -76.125 295.125 C-80.65245123 300.72851799 -85.54350093 305.94940933 -90.50830078 311.16650391 C-94.19712661 315.04685552 -97.77183464 318.99865776 -101.28076172 323.04223633 C-104.03382586 326.17725782 -106.89070676 329.21210264 -109.75 332.25 C-114.11853526 336.90655137 -118.45720629 341.58609076 -122.75 346.3125 C-126.95061752 350.91464713 -131.30141111 355.32592166 -135.734375 359.703125 C-138.34105715 362.34576139 -140.74562317 365.11752145 -143.15625 367.9375 C-146.14504539 371.28089823 -149.37215794 374.38171413 -152.56640625 377.52734375 C-155.38618889 380.39238775 -157.98150893 383.39511041 -160.52734375 386.50390625 C-162 388 -162 388 -165 389 C-165.33 389.99 -165.66 390.98 -166 392 C-169.02087664 395.10972595 -170.42134701 395.96205554 -174.8125 396.25 C-175.864375 396.1675 -176.91625 396.085 -178 396 C-178.2566375 391.4732457 -177.71004642 388.70674891 -175.578125 384.71875 C-175.05379883 383.72423828 -174.52947266 382.72972656 -173.98925781 381.70507812 C-173.41530273 380.64740234 -172.84134766 379.58972656 -172.25 378.5 C-171.65799805 377.38560547 -171.06599609 376.27121094 -170.45605469 375.12304688 C-166.3087741 367.34164256 -162.06408782 359.61296052 -157.8125 351.88818359 C-153.15050758 343.37306658 -148.69136703 334.75652882 -144.25 326.125 C-143.72146423 325.09862427 -143.72146423 325.09862427 -143.18225098 324.05151367 C-138.04689973 314.07127629 -133.00433995 304.04647491 -128 294 C-127.23863389 292.47638623 -126.47700028 290.95290603 -125.71484375 289.4296875 C-124.79313122 287.58626244 -123.87171127 285.74268757 -122.95410156 283.8972168 C-121.35975332 280.69496292 -119.74816586 277.50541402 -118.08203125 274.33984375 C-111.72000541 262.09057012 -107.84628621 250.39747451 -107.875 236.5 C-107.87242188 235.2521875 -107.86984375 234.004375 -107.8671875 232.71875 C-108.1655134 224.3656248 -109.70040428 218.53256289 -115 212 C-125.24640836 203.4921519 -139.94589459 200.20151703 -152.5625 197 C-153.22686066 196.8301358 -153.89122131 196.66027161 -154.57571411 196.48526001 C-175.71257718 191.10587485 -197.11692509 187.69138513 -218.78710938 185.30957031 C-220.91346223 185.01210612 -222.92943299 184.56201105 -225 184 C-225 182.68 -225 181.36 -225 180 C-214.92870771 177.7410687 -205.20186452 176.40835772 -194.875 175.875 C-193.47644232 175.79412521 -192.077924 175.71256721 -190.67944336 175.63037109 C-182.81688359 175.18223633 -174.96038928 174.89916817 -167.08691406 174.71289062 C-132.0317328 173.83869658 -96.88195908 168.55776385 -64 156 C-63.21302734 155.70013184 -62.42605469 155.40026367 -61.61523438 155.09130859 C-40.83282831 147.03151986 -21.7539729 136.45937098 -4 123 C-4.49024647 117.00918816 -7.12328194 112.40641002 -9.875 107.1875 C-13.94058106 99.44883634 -17.39146571 91.88097325 -19.0625 83.25 C-19.74347073 79.98701525 -20.68346344 77.07191863 -22 74 C-27.44599159 54.01707021 -29.63396832 28.76005615 -19.87109375 9.80859375 C-14.8205694 1.21161971 -10.03829718 -1.41070744 0 0 Z M-24 24 C-23 26 -23 26 -23 26 Z M-25 33 C-24 36 -24 36 -24 36 Z M-25 45 C-24 48 -24 48 -24 48 Z M-24 56 C-23 59 -23 59 -23 59 Z M-140 174 C-136 175 -136 175 -136 175 Z M184 174 C188 175 188 175 188 175 Z M-178 176 C-178 176.33 -178 176.66 -178 177 C-171.73 177 -165.46 177 -159 177 C-159 176.67 -159 176.34 -159 176 C-165.27 176 -171.54 176 -178 176 Z M208 176 C208 176.33 208 176.66 208 177 C214.27 177 220.54 177 227 177 C227 176.67 227 176.34 227 176 C220.73 176 214.46 176 208 176 Z M-199 177 C-195 178 -195 178 -195 178 Z M243 177 C247 178 247 178 247 178 Z M-107 227 C-106 229 -106 229 -106 229 Z M-107 244 C-106 247 -106 247 -106 247 Z " fill="#FBFDFD" transform="translate(225,0)"/>
<path d="M0 0 C1.03189453 0.00064453 2.06378906 0.00128906 3.12695312 0.00195312 C15.64858241 0.07508399 24.79556319 4.02260034 34.3125 12.1875 C35.01117187 12.77660156 35.70984375 13.36570312 36.4296875 13.97265625 C38.06842807 15.36459854 39.69224347 16.77408473 41.3125 18.1875 C41.75980469 17.80078125 42.20710938 17.4140625 42.66796875 17.015625 C43.27253906 16.49484375 43.87710937 15.9740625 44.5 15.4375 C45.09167969 14.92703125 45.68335938 14.4165625 46.29296875 13.890625 C47.29263672 13.04757813 47.29263672 13.04757813 48.3125 12.1875 C49.09496094 11.52492188 49.87742187 10.86234375 50.68359375 10.1796875 C53.41752274 8.10791368 56.1169329 6.5858203 59.1875 5.0625 C60.17492188 4.56492187 61.16234375 4.06734375 62.1796875 3.5546875 C69.59723137 0.31760476 76.02350696 -0.09573807 84 0 C85.03189453 0.00064453 86.06378906 0.00128906 87.12695312 0.00195312 C98.84111792 0.0703681 108.36025182 3.46618594 117.3125 11.1875 C118.240625 11.95707031 118.240625 11.95707031 119.1875 12.7421875 C127.44234877 20.17866764 130.72671582 30.88922721 131.49290848 41.74318314 C131.55590345 44.42347416 131.56034244 47.09688681 131.53955078 49.77783203 C131.53984283 50.78391006 131.54013489 51.7899881 131.54043579 52.82655334 C131.53905448 56.11623081 131.52355015 59.40567514 131.5078125 62.6953125 C131.50407811 64.99030432 131.50123315 67.28529775 131.49923706 69.58029175 C131.4916342 75.59391756 131.47201467 81.60744537 131.4498291 87.62103271 C131.4256828 94.85069758 131.41657375 102.08039538 131.40492249 109.31008911 C131.3855882 120.26929405 131.34724214 131.22828432 131.3125 142.1875 C115.4725 142.1875 99.6325 142.1875 83.3125 142.1875 C81.70283259 138.96816518 82.16835273 135.45419314 82.1706543 131.91748047 C82.16717987 131.06197098 82.16370544 130.20646149 82.16012573 129.32502747 C82.15276225 127.46273323 82.14742003 125.60043019 82.14383507 123.73812485 C82.13667551 120.78686141 82.12101105 117.83576481 82.10249329 114.884552 C82.05001183 106.49174338 82.0020798 98.09902372 81.98657227 89.70605469 C81.97646897 84.57478937 81.94708029 79.44394016 81.90525246 74.31283951 C81.8929663 72.36014077 81.88781683 70.40738318 81.89005089 68.45464706 C81.89241396 65.71394536 81.87015986 62.97442791 81.8425293 60.23388672 C81.84913071 59.43357529 81.85573212 58.63326385 81.86253357 57.80870056 C81.75564655 51.31911279 79.99157721 45.78539305 75.25 41.1875 C69.64549236 39.27958251 63.60471141 39.06478421 58.25 41.6875 C57.610625 42.1825 56.97125 42.6775 56.3125 43.1875 C55.6525 43.1875 54.9925 43.1875 54.3125 43.1875 C53.63688252 44.8505584 52.97316719 46.51844605 52.3125 48.1875 C51.57 49.8890625 51.57 49.8890625 50.8125 51.625 C46.6590251 62.89130677 46.98798992 75.45697887 46.8984375 87.3046875 C46.87967288 88.89894554 46.8600958 90.49319419 46.8397522 92.08743286 C46.7889829 96.23332116 46.74906633 100.37924148 46.71160889 104.52526855 C46.66408546 109.52665763 46.60273019 114.52789483 46.54376221 119.52915955 C46.45622523 127.0818765 46.38597956 134.63457442 46.3125 142.1875 C30.4725 142.1875 14.6325 142.1875 -1.6875 142.1875 C-3.30634894 138.94980211 -2.84974761 135.39651071 -2.86108398 131.83813477 C-2.867771 130.97459381 -2.87445801 130.11105286 -2.88134766 129.22134399 C-2.89541551 127.34267663 -2.90730401 125.463992 -2.91729546 123.58529854 C-2.93367364 120.61441397 -2.95690948 117.6436576 -2.98219299 114.6728363 C-3.05306165 106.22490802 -3.11314717 97.77692761 -3.16430664 89.32885742 C-3.19605725 84.16530058 -3.23732202 79.00189108 -3.28450203 73.83845329 C-3.30054495 71.86766135 -3.31285589 69.89683545 -3.32140923 67.92599678 C-3.33353181 65.17259847 -3.35766826 62.41954808 -3.38452148 59.66625977 C-3.38511063 58.84797195 -3.38569977 58.02968414 -3.38630676 57.18659973 C-3.43620331 53.3354134 -3.50126873 51.4668469 -5.6875 48.1875 C-6.161875 47.176875 -6.63625 46.16625 -7.125 45.125 C-8.50830155 41.9645602 -8.50830155 41.9645602 -11.6875 40.1875 C-18.08971572 39.20493054 -23.72460292 39.6494553 -29.03515625 43.515625 C-39.7095004 54.31614343 -37.84321315 76.15868608 -38.00390625 90.0390625 C-38.0245222 91.54935209 -38.04551973 93.05963651 -38.06687927 94.56991577 C-38.12162142 98.5120216 -38.17123816 102.45417526 -38.21972656 106.3963623 C-38.27921268 111.14397825 -38.34517271 115.89150828 -38.41002655 120.63905334 C-38.50743233 127.82181567 -38.59669996 135.00463747 -38.6875 142.1875 C-54.1975 142.1875 -69.7075 142.1875 -85.6875 142.1875 C-85.84046776 124.08145883 -85.98929225 105.97539995 -86.1304636 87.86926365 C-86.19614157 79.46286643 -86.26371281 71.05649229 -86.33569336 62.65014648 C-86.39840398 55.32584771 -86.45761101 48.00153057 -86.51255554 40.67716926 C-86.54179011 36.79657336 -86.5728165 32.91600993 -86.60803413 29.03546333 C-86.64108904 25.38713548 -86.66947913 21.73880183 -86.69420624 18.09040833 C-86.70890433 16.10459139 -86.72862498 14.11881366 -86.74845886 12.13304138 C-86.75549835 10.9620993 -86.76253784 9.79115723 -86.76979065 8.58473206 C-86.77808679 7.56062005 -86.78638292 6.53650805 -86.79493046 5.48136234 C-86.6875 3.1875 -86.6875 3.1875 -85.6875 2.1875 C-83.20163073 2.07419433 -80.74459148 2.02332663 -78.2578125 2.01953125 C-77.51167694 2.01620285 -76.76554138 2.01287445 -75.99679565 2.00944519 C-74.41469948 2.00437245 -72.83259258 2.00203697 -71.25048828 2.00219727 C-68.82957263 2.00001539 -66.4091159 1.9818766 -63.98828125 1.96289062 C-62.45312656 1.95995586 -60.9179697 1.95797162 -59.3828125 1.95703125 C-58.29518112 1.94625298 -58.29518112 1.94625298 -57.18557739 1.93525696 C-53.46344941 1.95216591 -51.86807873 2.06711418 -48.6875 4.1875 C-47.51899977 6.55861725 -46.48054628 8.86718706 -45.5 11.3125 C-45.22736328 11.97121094 -44.95472656 12.62992188 -44.67382812 13.30859375 C-44.00348868 14.93152083 -43.34439359 16.55908417 -42.6875 18.1875 C-41.93726563 17.424375 -41.18703125 16.66125 -40.4140625 15.875 C-29.04342636 4.66726696 -15.83101198 -0.19001215 0 0 Z " fill="#FAFCFC" transform="translate(987.6875,76.8125)"/>
<path d="M0 0 C0.70070114 0.00045319 1.40140228 0.00090637 2.12333679 0.00137329 C2.85844482 -0.00198532 3.59355286 -0.00534393 4.35093689 -0.00880432 C6.79730392 -0.0183518 9.24360264 -0.02026011 11.68998718 -0.02133179 C13.39096098 -0.02454456 15.0919345 -0.02790864 16.79290771 -0.03141785 C20.37001688 -0.03742055 23.94710185 -0.03925686 27.5242157 -0.03866577 C32.08686933 -0.03856472 36.64936532 -0.05215183 41.21198177 -0.06943798 C44.73209327 -0.08061858 48.25216758 -0.08258304 51.772295 -0.08205605 C53.45264282 -0.08322955 55.13299181 -0.08761566 56.81332207 -0.09538841 C65.4218439 -0.13144253 73.72254983 -0.11437005 82.10014343 2.14663696 C82.77250534 2.30167191 83.44486725 2.45670685 84.13760376 2.61643982 C99.04460528 6.64369579 111.34564873 17.12025985 119.27983093 30.07241821 C126.91762038 43.98211506 126.2458146 64.93384429 122.53764343 79.95913696 C118.01984288 95.09218915 109.0816721 106.04444533 95.29545593 113.64273071 C86.09305689 117.97393319 76.56185662 120.15738111 66.42436218 120.42788696 C65.18492859 120.46526978 63.945495 120.50265259 62.66850281 120.54116821 C60.06174633 120.61201112 57.45497518 120.68231574 54.84819031 120.75210571 C52.99870789 120.80817993 52.99870789 120.80817993 51.11186218 120.86538696 C49.9822406 120.89567993 48.85261902 120.9259729 47.68876648 120.95718384 C45.17095799 120.85795316 45.17095799 120.85795316 44.10014343 122.14663696 C43.97684255 123.95631436 43.9222416 125.77071534 43.89482117 127.5843811 C43.86490334 129.32607323 43.86490334 129.32607323 43.8343811 131.10295105 C43.80931236 132.99822792 43.80931236 132.99822792 43.78373718 134.93179321 C43.76295609 136.21774887 43.74217499 137.50370453 43.72076416 138.82862854 C43.66548167 142.252996 43.61609982 145.67742446 43.56791687 149.10189819 C43.51774679 152.59408 43.46209108 156.08617398 43.40678406 159.57827759 C43.29860579 166.43433056 43.19963146 173.29043024 43.10014343 180.14663696 C27.26014343 180.14663696 11.42014343 180.14663696 -4.89985657 180.14663696 C-5.0528145 156.82523521 -5.20163778 133.50381923 -5.34282017 110.18234348 C-5.4085028 99.35458548 -5.47607607 88.52684536 -5.54804993 77.6991272 C-5.6107535 68.26531384 -5.66996101 58.83148625 -5.72491211 49.39762443 C-5.75415092 44.39920757 -5.78517982 39.40081587 -5.8203907 34.40243721 C-5.85343699 29.70351095 -5.8818298 25.00458018 -5.90656281 20.30560303 C-5.91650485 18.57573803 -5.92818675 16.84588208 -5.94168663 15.11604118 C-5.95978254 12.76483418 -5.97177227 10.41367552 -5.98214722 8.06242371 C-5.99044335 6.74333795 -5.99873949 5.42425219 -6.00728703 4.06519413 C-5.83221113 -0.69108289 -4.31675276 0.02900206 0 0 Z M68.10014343 1.14663696 C72.10014343 2.14663696 72.10014343 2.14663696 72.10014343 2.14663696 Z M43.10014343 42.14663696 C42.92482054 45.01552278 42.86876729 47.78656342 42.90483093 50.65444946 C42.90766083 51.49506927 42.91049072 52.33568909 42.91340637 53.20178223 C42.92461914 55.89187742 42.9497254 58.58164206 42.97514343 61.27163696 C42.98517183 63.09324674 42.99429792 64.91486173 43.00248718 66.73648071 C43.02456202 71.20666054 43.05909909 75.67659267 43.10014343 80.14663696 C45.4947723 80.17715619 47.88900685 80.19939953 50.28373718 80.21694946 C50.95674866 80.22637573 51.62976013 80.235802 52.32316589 80.24551392 C59.62110261 80.28557578 65.22174094 79.23397297 70.60014343 74.14663696 C75.72125218 68.00130647 74.63114685 59.76017899 74.10014343 52.14663696 C72.94759222 47.54960414 71.19657491 44.86981517 67.16264343 42.20913696 C62.00797808 40.42078368 57.37014358 39.98789092 51.91264343 39.95913696 C50.68158875 39.94495728 49.45053406 39.93077759 48.18217468 39.91616821 C44.99428638 39.81755462 44.99428638 39.81755462 43.10014343 42.14663696 Z M75.10014343 55.14663696 C75.10014343 58.11663696 75.10014343 61.08663696 75.10014343 64.14663696 C75.43014343 64.14663696 75.76014343 64.14663696 76.10014343 64.14663696 C76.10014343 61.17663696 76.10014343 58.20663696 76.10014343 55.14663696 C75.77014343 55.14663696 75.44014343 55.14663696 75.10014343 55.14663696 Z " fill="#FBFDFD" transform="translate(552.8998565673828,38.853363037109375)"/>
<path d="M0 0 C0.72960937 -0.02835938 1.45921875 -0.05671875 2.2109375 -0.0859375 C8.6389513 1.14141789 13.13893081 6.6668795 17.5 11.1875 C20.95135521 14.74355925 24.39735886 18.22710216 28.17431641 21.43969727 C33.48225472 26.05890085 38.46994875 30.99681078 43.46875 35.9453125 C43.96891129 36.44015011 44.46907257 36.93498772 44.98439026 37.4448204 C47.62002142 40.05396919 50.25213586 42.66661268 52.88183594 45.28173828 C55.05141956 47.43788592 57.22808642 49.58648938 59.41113281 51.72900391 C62.063909 54.33256534 64.70429438 56.94809447 67.33613586 59.57281113 C68.33665799 60.56662196 69.34142917 61.55617426 70.35050964 62.5412941 C71.75507433 63.91432686 73.14261796 65.30470678 74.52929688 66.69580078 C75.71888 67.87325363 75.71888 67.87325363 76.93249512 69.07449341 C78.625 71.375 78.625 71.375 79.00598145 74.04244995 C78.625 76.375 78.625 76.375 76.625 78.375 C74.3125 78.75 74.3125 78.75 71.625 78.375 C69.92439692 77.08523075 68.2532139 75.75502719 66.625 74.375 C66.62135437 75.0462793 66.61770874 75.71755859 66.61395264 76.40917969 C66.57202992 83.41782827 66.50261518 90.42582797 66.41748047 97.43408203 C66.38931526 100.04697163 66.36807871 102.65994573 66.35400391 105.27294922 C66.33251387 109.03657146 66.28582857 112.79918248 66.234375 116.5625 C66.23314636 117.72426758 66.23191772 118.88603516 66.23065186 120.08300781 C66.09977463 127.38753457 65.35677552 133.46942838 60.14276123 138.92626953 C56.36096883 142.24371841 53.34268878 143.49578941 48.39433289 143.51544189 C47.10116653 143.52400711 47.10116653 143.52400711 45.78187561 143.53274536 C44.36750465 143.53442215 44.36750465 143.53442215 42.92456055 143.53613281 C41.92914246 143.54109772 40.93372437 143.54606262 39.90814209 143.55117798 C36.60932732 143.56580391 33.31056064 143.57260239 30.01171875 143.578125 C27.72109475 143.58387616 25.43047077 143.5896339 23.1398468 143.59539795 C18.33387019 143.60590921 13.52791032 143.61175104 8.72192383 143.61523438 C2.56483534 143.6207189 -3.59203197 143.6447457 -9.74905109 143.67320633 C-14.48197576 143.69183365 -19.21484717 143.69703837 -23.9478054 143.69857025 C-26.21759437 143.70159716 -28.48738238 143.70962693 -30.75713539 143.72275543 C-33.9337202 143.73981729 -37.10976486 143.73793511 -40.28637695 143.73144531 C-41.22321823 143.7406601 -42.16005951 143.74987488 -43.12528992 143.7593689 C-49.30467002 143.71983859 -53.48837004 142.69972871 -58.421875 138.7265625 C-59.26492187 137.87191406 -59.26492187 137.87191406 -60.125 137 C-60.98351562 136.15308594 -60.98351562 136.15308594 -61.859375 135.2890625 C-64.92528781 131.41716231 -65.62479082 127.70534058 -65.60205078 122.8503418 C-65.60189972 121.76959885 -65.60174866 120.6888559 -65.60159302 119.57536316 C-65.59127045 118.4199855 -65.58094788 117.26460785 -65.5703125 116.07421875 C-65.5674826 114.88270706 -65.56465271 113.69119537 -65.56173706 112.46357727 C-65.55055433 108.66311544 -65.5254528 104.86289044 -65.5 101.0625 C-65.48996775 98.48372737 -65.48084233 95.90495103 -65.47265625 93.32617188 C-65.4506212 87.00903397 -65.41716232 80.69203391 -65.375 74.375 C-66.14585937 75.03628906 -66.91671875 75.69757813 -67.7109375 76.37890625 C-70.375 78.375 -70.375 78.375 -73 78.3125 C-75.4636729 77.33999754 -76.70231628 76.39982766 -78.375 74.375 C-76.9545205 69.81525042 -74.40689966 66.98241719 -71.0703125 63.70703125 C-70.54992401 63.18614426 -70.02953552 62.66525726 -69.49337769 62.12858582 C-68.3958248 61.03336509 -67.29459764 59.94181554 -66.18994141 58.85375977 C-64.50372884 57.19117659 -62.83126867 55.5156364 -61.16015625 53.83789062 C-60.0893319 52.77264254 -59.01774257 51.70816277 -57.9453125 50.64453125 C-57.44726105 50.14556839 -56.94920959 49.64660553 -56.43606567 49.13252258 C-53.88592429 46.63369194 -51.59213259 44.88188013 -48.375 43.375 C-46.53329775 41.83734816 -46.53329775 41.83734816 -44.7734375 40.0390625 C-44.11859375 39.38679688 -43.46375 38.73453125 -42.7890625 38.0625 C-41.77972656 37.0415625 -41.77972656 37.0415625 -40.75 36 C-40.069375 35.32710938 -39.38875 34.65421875 -38.6875 33.9609375 C-38.03523438 33.30609375 -37.38296875 32.65125 -36.7109375 31.9765625 C-35.82220947 31.08445068 -35.82220947 31.08445068 -34.91552734 30.17431641 C-33.29449708 28.4344129 -33.29449708 28.4344129 -32.35400391 26.27490234 C-31.375 24.375 -31.375 24.375 -28.375 22.375 C-26.68626121 20.73070171 -25.02194485 19.06115782 -23.375 17.375 C-22.60027344 16.6015625 -21.82554687 15.828125 -21.02734375 15.03125 C-19.28704535 13.28838857 -17.55744247 11.53476753 -15.83984375 9.76953125 C-15.00582031 8.91746094 -14.17179687 8.06539062 -13.3125 7.1875 C-12.47589844 6.32769531 -11.63929688 5.46789062 -10.77734375 4.58203125 C-7.30016994 1.3875545 -4.72439249 0.08288408 0 0 Z " fill="#FBFDFD" transform="translate(248.375,226.625)"/>
<path d="M0 0 C1.88041992 -0.01740234 1.88041992 -0.01740234 3.79882812 -0.03515625 C10.14770508 -0.01511771 15.57180576 0.33277759 21.50366211 2.6652832 C23.41727476 3.48113644 23.41727476 3.48113644 25.9921875 3.87890625 C38.19949793 6.48888676 49.41887876 16.72363526 56.25 26.6875 C67.03623624 44.93120579 65.3125 65.76338856 65.3125 86.375 C37.2625 86.375 9.2125 86.375 -19.6875 86.375 C-17.85960879 94.81946545 -17.85960879 94.81946545 -13.6875 101.375 C-13.6875 102.035 -13.6875 102.695 -13.6875 103.375 C6.42751317 111.87950925 28.37102519 108.78242037 48.30859375 101.36328125 C51.3125 100.375 51.3125 100.375 55.3125 100.375 C55.3125 111.925 55.3125 123.475 55.3125 135.375 C41.79085592 141.00901836 41.79085592 141.00901836 36 142.125 C34.89011719 142.34671875 33.78023437 142.5684375 32.63671875 142.796875 C24.67039476 144.18232265 16.94787475 144.59298512 8.8815918 144.61523438 C6.77937082 144.62486544 4.67816126 144.65591711 2.57617188 144.6875 C-17.37087542 144.84486129 -37.17526013 139.6447352 -51.6875 125.375 C-59.15869469 117.25467687 -65.22638768 108.54059631 -67.1953125 97.55078125 C-67.61919345 95.32231676 -67.61919345 95.32231676 -68.69726562 93.19921875 C-70.58201485 87.82378014 -70.05931415 81.9954984 -70.05810547 76.3503418 C-70.06241433 74.10709905 -70.09857358 71.86593338 -70.13671875 69.62304688 C-70.29140413 50.13510843 -64.91550171 31.81140229 -51.09765625 17.51953125 C-36.60912726 4.62779314 -18.99651455 -0.17744539 0 0 Z M-13.5625 39.4375 C-16.3832292 43.33674331 -19.6875 49.39374394 -19.6875 54.375 C-6.8175 54.375 6.0525 54.375 19.3125 54.375 C19.3125 47.69743014 19.16848103 44.54158132 15.3125 39.375 C11.34866299 35.82333188 6.80175226 33.54474621 1.45703125 33.17578125 C-4.17812614 33.69926582 -9.02467136 36.18210119 -13.5625 39.4375 Z M-67.6875 51.375 C-66.6875 53.375 -66.6875 53.375 -66.6875 53.375 Z M20.3125 51.375 C21.3125 55.375 21.3125 55.375 21.3125 55.375 Z M-68.6875 56.375 C-67.6875 58.375 -67.6875 58.375 -67.6875 58.375 Z M-68.6875 88.375 C-67.6875 90.375 -67.6875 90.375 -67.6875 90.375 Z " fill="#FBFDFD" transform="translate(1214.6875,76.625)"/>
<path d="M0 0 C0.99 0.66 1.98 1.32 3 2 C3.1796875 4.9296875 3.1796875 4.9296875 2.875 8.875 C2.822229 9.59228271 2.76945801 10.30956543 2.71508789 11.04858398 C1.76677235 23.05605911 0.35004571 35.03247344 -1 47 C-1.64437012 46.98428955 -2.28874023 46.9685791 -2.95263672 46.95239258 C-5.92666529 46.88929099 -8.90055229 46.85077414 -11.875 46.8125 C-12.88820313 46.78736328 -13.90140625 46.76222656 -14.9453125 46.73632812 C-24.13400507 46.64797531 -32.74121132 47.95100943 -40 54 C-44.83051312 60.17232233 -46.29463017 65.93250501 -46.31884766 73.65771484 C-46.33391609 74.77093613 -46.33391609 74.77093613 -46.34928894 75.90664673 C-46.37999488 78.34140298 -46.39712068 80.77604991 -46.4140625 83.2109375 C-46.43278431 84.90631035 -46.45235847 86.60167398 -46.4727478 88.29702759 C-46.52396808 92.74552972 -46.56364772 97.19406202 -46.60089111 101.6427002 C-46.64805299 106.98763379 -46.70960738 112.33241883 -46.76873779 117.67723083 C-46.85682684 125.78476026 -46.9266792 133.89226299 -47 142 C-62.84 142 -78.68 142 -95 142 C-95.15296776 123.89395883 -95.30179225 105.78789995 -95.4429636 87.68176365 C-95.50864157 79.27536643 -95.57621281 70.86899229 -95.64819336 62.46264648 C-95.71090398 55.13834771 -95.77011101 47.81403057 -95.82505554 40.48966926 C-95.85429011 36.60907336 -95.8853165 32.72850993 -95.92053413 28.84796333 C-95.95358904 25.19963548 -95.98197913 21.55130183 -96.00670624 17.90290833 C-96.02140433 15.91709139 -96.04112498 13.93131366 -96.06095886 11.94554138 C-96.06799835 10.7745993 -96.07503784 9.60365723 -96.08229065 8.39723206 C-96.09058679 7.37312005 -96.09888292 6.34900805 -96.10743046 5.29386234 C-96 3 -96 3 -95 2 C-92.51415964 1.87431786 -90.05758328 1.81137243 -87.5703125 1.796875 C-86.82417694 1.79117493 -86.07804138 1.78547485 -85.30929565 1.77960205 C-83.72720768 1.77013849 -82.14509988 1.7636127 -80.56298828 1.75976562 C-78.14190218 1.7500677 -75.7216676 1.71906177 -73.30078125 1.6875 C-71.76563006 1.6809694 -70.23047277 1.67571915 -68.6953125 1.671875 C-67.97022491 1.6595282 -67.24513733 1.6471814 -66.49807739 1.63446045 C-61.49893989 1.65661309 -61.49893989 1.65661309 -59.10571289 3.30371094 C-57.25674128 6.14024323 -56.32234905 9.29655135 -55.3125 12.5 C-55.08755859 13.17675781 -54.86261719 13.85351562 -54.63085938 14.55078125 C-53.68049968 17.47985337 -53 19.90184951 -53 23 C-52.01 23 -51.02 23 -50 23 C-48.3606444 21.23762948 -48.3606444 21.23762948 -46.8125 18.9375 C-35.29667106 3.70227289 -19.05691497 -3.3241596 0 0 Z " fill="#FBFDFD" transform="translate(798,77)"/>
<path d="M0 0 C0.78894653 0.00142502 1.57789307 0.00285004 2.39074707 0.00431824 C3.28507446 0.00124161 4.17940186 -0.00183502 5.10083008 -0.00500488 C6.06855347 0.00218063 7.03627686 0.00936615 8.0333252 0.01676941 C9.02457397 0.01722763 10.01582275 0.01768585 11.03710938 0.01815796 C13.13530675 0.02118234 15.23350185 0.02907415 17.33166504 0.04142761 C20.55130937 0.05966302 23.77066592 0.06193748 26.99035645 0.06169128 C29.02551519 0.06660717 31.06067198 0.0724358 33.0958252 0.07926941 C34.54741028 0.08093864 34.54741028 0.08093864 36.02832031 0.0826416 C36.92264771 0.08902145 37.8169751 0.09540131 38.73840332 0.10197449 C39.92182312 0.10769218 39.92182312 0.10769218 41.12915039 0.11352539 C43.0645752 0.24723816 43.0645752 0.24723816 45.0645752 1.24723816 C45.0645752 47.11723816 45.0645752 92.98723816 45.0645752 140.24723816 C29.2245752 140.24723816 13.3845752 140.24723816 -2.9354248 140.24723816 C-3.96762688 137.15063192 -4.06364377 135.02082807 -4.06913757 131.77481079 C-4.07340256 130.63766632 -4.07766754 129.50052185 -4.08206177 128.32891846 C-4.08160858 127.08049667 -4.0811554 125.83207489 -4.08068848 124.54582214 C-4.08404709 123.23186462 -4.0874057 121.9179071 -4.09086609 120.56413269 C-4.0997048 116.95891448 -4.10204409 113.35372 -4.10268188 109.748492 C-4.10363089 106.74128024 -4.10730891 103.73407403 -4.11085397 100.7268644 C-4.11899726 93.63542689 -4.12143824 86.54400207 -4.12072754 79.45256042 C-4.12012606 72.12880289 -4.13069202 64.80511885 -4.1464712 57.48137993 C-4.15952709 51.19853411 -4.16491229 44.91571238 -4.16427213 38.63285309 C-4.16401666 34.87802647 -4.16689493 31.12326522 -4.17745018 27.36845207 C-4.1888887 23.18533636 -4.18439639 19.00238658 -4.17834473 14.81925964 C-4.18396423 13.56881363 -4.18958374 12.31836761 -4.19537354 11.0300293 C-4.19117905 9.89570465 -4.18698456 8.76138 -4.18266296 7.59268188 C-4.18320773 6.6028855 -4.1837525 5.61308912 -4.18431377 4.59329891 C-3.86578635 1.59081673 -3.08239496 0.39375627 0 0 Z " fill="#FBFDFD" transform="translate(822.9354248046875,78.75276184082031)"/>
<path d="M0 0 C1.216875 -0.00257812 2.43375 -0.00515625 3.6875 -0.0078125 C14.84076019 0.4393701 23.50711909 7.38666264 31 15.125 C40.13736766 25.67828207 40.70148924 36.65111232 40 50.125 C38.39826853 61.08730894 31.57712829 69.89061341 22.8671875 76.4296875 C13.43657034 82.00582898 2.27184263 83.78230367 -8.359375 81.359375 C-14.17167513 79.70247496 -19.25129607 77.9691889 -24 74.125 C-24.57105469 73.68285156 -25.14210938 73.24070312 -25.73046875 72.78515625 C-34.09111612 66.06455058 -40.19395182 56.53215857 -41.37109375 45.71484375 C-41.62224415 31.90157189 -37.72252287 21.23875201 -28.2265625 11.26171875 C-20.2955972 3.70302325 -10.84629332 -0.02297944 0 0 Z M-40 34.125 C-39 36.125 -39 36.125 -39 36.125 Z M-40 47.125 C-39 49.125 -39 49.125 -39 49.125 Z " fill="#FBFDFD" transform="translate(341,58.875)"/>
<path d="M0 0 C8.80383802 6.44435044 16.27265031 14.55307073 18.64453125 25.45703125 C18.88438325 28.51659794 18.87551912 31.57644842 18.89453125 34.64453125 C18.91515625 35.45728516 18.93578125 36.27003906 18.95703125 37.10742188 C19.01133914 45.64054978 16.84206346 52.62598891 11.64453125 59.45703125 C11.23589844 60.02164063 10.82726562 60.58625 10.40625 61.16796875 C3.97627888 69.46353713 -5.15990396 73.69664596 -15.35546875 75.45703125 C-25.61398592 76.61292051 -35.90975962 74.3152961 -44.26171875 68.1875 C-54.50022298 59.72545266 -61.04815234 50.77348892 -62.60546875 37.29296875 C-62.99447027 25.08804603 -57.81718654 14.26156472 -49.59375 5.49609375 C-45.87273171 2.10626557 -41.8308434 -0.27989437 -37.35546875 -2.54296875 C-36.75605469 -2.88328125 -36.15664062 -3.22359375 -35.5390625 -3.57421875 C-24.60717656 -8.85674082 -9.75043899 -6.38710348 0 0 Z " fill="#FBFDFD" transform="translate(178.35546875,65.54296875)"/>
<path d="M0 0 C3.65497824 2.18433611 7.02197585 4.53456999 9.828125 7.765625 C9.828125 8.425625 9.828125 9.085625 9.828125 9.765625 C10.818125 9.765625 11.808125 9.765625 12.828125 9.765625 C13.06402344 9.17136719 13.29992187 8.57710938 13.54296875 7.96484375 C16.25486192 3.32412687 22.01168716 0.51570724 27.1015625 -0.83984375 C29.36022088 -1.1211568 31.55258792 -1.2041353 33.828125 -1.234375 C35.17777344 -1.34265625 35.17777344 -1.34265625 36.5546875 -1.453125 C43.36379214 -1.82828228 47.66426059 -0.75416879 52.828125 3.765625 C60.40994377 11.33055776 61.84643313 18.08292062 61.94165039 28.63085938 C61.94149361 30.87370415 61.93593644 33.11655321 61.92578125 35.359375 C61.9243663 36.54664185 61.92295135 37.73390869 61.92149353 38.95715332 C61.91592311 42.72667016 61.90337605 46.49612629 61.890625 50.265625 C61.88560618 52.83072831 61.88104394 55.39583255 61.87695312 57.9609375 C61.86596336 64.22918985 61.84871916 70.49739715 61.828125 76.765625 C56.218125 76.765625 50.608125 76.765625 44.828125 76.765625 C43.60633901 74.32205301 43.69063308 72.71561144 43.67041016 69.98388672 C43.66014801 68.98880096 43.64988586 67.99371521 43.63931274 66.96847534 C43.63201141 65.8883316 43.62471008 64.80818787 43.6171875 63.6953125 C43.5891061 61.41405548 43.56044156 59.13280558 43.53125 56.8515625 C43.49007435 53.25065404 43.45319292 49.64987662 43.42675781 46.04882812 C43.39904832 42.57654198 43.35316065 39.10486276 43.3046875 35.6328125 C43.30143463 34.56481415 43.29818176 33.4968158 43.29483032 32.39645386 C43.19317801 26.17452876 42.51769925 21.41003532 39.828125 15.765625 C36.05652404 12.90835155 31.67528504 13.70647158 27.1953125 14.3046875 C24.03654611 14.91976082 22.2263666 15.57899295 19.828125 17.765625 C16.4675991 23.1378943 14.74204883 28.19710125 14.62280273 34.53417969 C14.60285751 35.47485291 14.58291229 36.41552612 14.56236267 37.38470459 C14.54565018 38.39212708 14.52893768 39.39954956 14.51171875 40.4375 C14.4805471 41.99383148 14.4805471 41.99383148 14.44874573 43.581604 C14.38341092 46.89287758 14.32443983 50.20422982 14.265625 53.515625 C14.22242451 55.76172685 14.17880973 58.00782078 14.13476562 60.25390625 C14.02774597 65.75772957 13.92594978 71.26163098 13.828125 76.765625 C11.20285311 76.81944606 8.57867787 76.85920813 5.953125 76.890625 C5.20675781 76.90738281 4.46039062 76.92414063 3.69140625 76.94140625 C1.73618039 76.9590209 -0.21929521 76.86882689 -2.171875 76.765625 C-4.69865043 74.23884957 -4.42646551 73.37444645 -4.44311523 69.8762207 C-4.45330185 68.85788651 -4.46348846 67.83955231 -4.47398376 66.7903595 C-4.47612381 65.68520493 -4.47826385 64.58005035 -4.48046875 63.44140625 C-4.50563883 61.11002365 -4.5310367 58.7786435 -4.55664062 56.44726562 C-4.58534076 52.76506235 -4.60935058 49.08290188 -4.62817383 45.40063477 C-4.64987747 41.85149298 -4.68933468 38.30286833 -4.73046875 34.75390625 C-4.73058456 33.65887283 -4.73070038 32.56383942 -4.7308197 31.43562317 C-4.80802432 25.45029826 -5.24501714 21.03469373 -8.171875 15.765625 C-11.07412475 13.29333817 -14.41505931 13.40459517 -18.1484375 13.515625 C-22.56164925 14.06088668 -25.37799043 15.94968808 -28.421875 19.078125 C-33.41323595 26.74342932 -33.32060086 35.78168855 -33.48828125 44.63671875 C-33.50906235 45.559048 -33.52984344 46.48137726 -33.55125427 47.43165588 C-33.61623138 50.35540883 -33.67539184 53.27924561 -33.734375 56.203125 C-33.77760961 58.19466986 -33.82122542 60.18620648 -33.86523438 62.17773438 C-33.97185907 67.04028037 -34.07327003 71.90291004 -34.171875 76.765625 C-39.451875 76.765625 -44.731875 76.765625 -50.171875 76.765625 C-50.501875 51.685625 -50.831875 26.605625 -51.171875 0.765625 C-48.68432714 -0.47814893 -46.94532199 -0.36743735 -44.171875 -0.359375 C-43.285 -0.36195313 -42.398125 -0.36453125 -41.484375 -0.3671875 C-39.171875 -0.234375 -39.171875 -0.234375 -37.171875 0.765625 C-36.76458272 3.08719097 -36.42748823 5.4225037 -36.171875 7.765625 C-32.11422148 5.81682157 -28.34233784 3.4614435 -24.51171875 1.10546875 C-17.72392321 -2.78136576 -7.25282115 -2.82252646 0 0 Z " fill="#FBFDFD" transform="translate(784.171875,292.234375)"/>
<path d="M0 0 C0.72960937 -0.02835938 1.45921875 -0.05671875 2.2109375 -0.0859375 C8.6389513 1.14141789 13.13893081 6.6668795 17.5 11.1875 C20.95135521 14.74355925 24.39735886 18.22710216 28.17431641 21.43969727 C33.48225472 26.05890085 38.46994875 30.99681078 43.46875 35.9453125 C43.96891129 36.44015011 44.46907257 36.93498772 44.98439026 37.4448204 C47.62002142 40.05396919 50.25213586 42.66661268 52.88183594 45.28173828 C55.05141956 47.43788592 57.22808642 49.58648938 59.41113281 51.72900391 C62.063909 54.33256534 64.70429438 56.94809447 67.33613586 59.57281113 C68.33665799 60.56662196 69.34142917 61.55617426 70.35050964 62.5412941 C71.75507433 63.91432686 73.14261796 65.30470678 74.52929688 66.69580078 C75.71888 67.87325363 75.71888 67.87325363 76.93249512 69.07449341 C78.625 71.375 78.625 71.375 79.00598145 74.04244995 C78.625 76.375 78.625 76.375 76.625 78.375 C74.3125 78.75 74.3125 78.75 71.625 78.375 C69.92439692 77.08523075 68.2532139 75.75502719 66.625 74.375 C66.62135437 75.0462793 66.61770874 75.71755859 66.61395264 76.40917969 C66.57202992 83.41782827 66.50261518 90.42582797 66.41748047 97.43408203 C66.38931526 100.04697163 66.36807871 102.65994573 66.35400391 105.27294922 C66.33251387 109.03657146 66.28582857 112.79918248 66.234375 116.5625 C66.23314636 117.72426758 66.23191772 118.88603516 66.23065186 120.08300781 C66.09977463 127.38753457 65.35677552 133.46942838 60.14276123 138.92626953 C56.36096883 142.24371841 53.34268878 143.49578941 48.39433289 143.51544189 C47.10116653 143.52400711 47.10116653 143.52400711 45.78187561 143.53274536 C44.36750465 143.53442215 44.36750465 143.53442215 42.92456055 143.53613281 C41.92914246 143.54109772 40.93372437 143.54606262 39.90814209 143.55117798 C36.60932732 143.56580391 33.31056064 143.57260239 30.01171875 143.578125 C27.72109475 143.58387616 25.43047077 143.5896339 23.1398468 143.59539795 C18.33387019 143.60590921 13.52791032 143.61175104 8.72192383 143.61523438 C2.56483534 143.6207189 -3.59203197 143.6447457 -9.74905109 143.67320633 C-14.48197576 143.69183365 -19.21484717 143.69703837 -23.9478054 143.69857025 C-26.21759437 143.70159716 -28.48738238 143.70962693 -30.75713539 143.72275543 C-33.9337202 143.73981729 -37.10976486 143.73793511 -40.28637695 143.73144531 C-41.22321823 143.7406601 -42.16005951 143.74987488 -43.12528992 143.7593689 C-49.30467002 143.71983859 -53.48837004 142.69972871 -58.421875 138.7265625 C-59.26492187 137.87191406 -59.26492187 137.87191406 -60.125 137 C-60.98351562 136.15308594 -60.98351562 136.15308594 -61.859375 135.2890625 C-64.92528781 131.41716231 -65.62479082 127.70534058 -65.60205078 122.8503418 C-65.60189972 121.76959885 -65.60174866 120.6888559 -65.60159302 119.57536316 C-65.59127045 118.4199855 -65.58094788 117.26460785 -65.5703125 116.07421875 C-65.5674826 114.88270706 -65.56465271 113.69119537 -65.56173706 112.46357727 C-65.55055433 108.66311544 -65.5254528 104.86289044 -65.5 101.0625 C-65.48996775 98.48372737 -65.48084233 95.90495103 -65.47265625 93.32617188 C-65.4506212 87.00903397 -65.41716232 80.69203391 -65.375 74.375 C-66.14585937 75.03628906 -66.91671875 75.69757813 -67.7109375 76.37890625 C-70.375 78.375 -70.375 78.375 -73 78.3125 C-75.4636729 77.33999754 -76.70231628 76.39982766 -78.375 74.375 C-76.9545205 69.81525042 -74.40689966 66.98241719 -71.0703125 63.70703125 C-70.54992401 63.18614426 -70.02953552 62.66525726 -69.49337769 62.12858582 C-68.3958248 61.03336509 -67.29459764 59.94181554 -66.18994141 58.85375977 C-64.50372884 57.19117659 -62.83126867 55.5156364 -61.16015625 53.83789062 C-60.0893319 52.77264254 -59.01774257 51.70816277 -57.9453125 50.64453125 C-57.44726105 50.14556839 -56.94920959 49.64660553 -56.43606567 49.13252258 C-53.88592429 46.63369194 -51.59213259 44.88188013 -48.375 43.375 C-46.53329775 41.83734816 -46.53329775 41.83734816 -44.7734375 40.0390625 C-44.11859375 39.38679688 -43.46375 38.73453125 -42.7890625 38.0625 C-41.77972656 37.0415625 -41.77972656 37.0415625 -40.75 36 C-40.069375 35.32710938 -39.38875 34.65421875 -38.6875 33.9609375 C-38.03523438 33.30609375 -37.38296875 32.65125 -36.7109375 31.9765625 C-35.82220947 31.08445068 -35.82220947 31.08445068 -34.91552734 30.17431641 C-33.29449708 28.4344129 -33.29449708 28.4344129 -32.35400391 26.27490234 C-31.375 24.375 -31.375 24.375 -28.375 22.375 C-26.68626121 20.73070171 -25.02194485 19.06115782 -23.375 17.375 C-22.60027344 16.6015625 -21.82554687 15.828125 -21.02734375 15.03125 C-19.28704535 13.28838857 -17.55744247 11.53476753 -15.83984375 9.76953125 C-15.00582031 8.91746094 -14.17179687 8.06539062 -13.3125 7.1875 C-12.47589844 6.32769531 -11.63929688 5.46789062 -10.77734375 4.58203125 C-7.30016994 1.3875545 -4.72439249 0.08288408 0 0 Z M0.625 9.375 C-3.76507157 11.7695845 -6.98499984 14.85667389 -10.43809509 18.43855286 C-12.25365156 20.25368024 -14.12318716 21.92414209 -16.07641602 23.58862305 C-20.49598782 27.42870588 -24.64447403 31.50006086 -28.77734375 35.64453125 C-29.54051407 36.40674484 -30.30368439 37.16895844 -31.08998108 37.95426941 C-32.68694789 39.55056068 -34.28267253 41.14809553 -35.87719727 42.74682617 C-38.32649736 45.20152823 -40.78114904 47.65078896 -43.23632812 50.09960938 C-44.7919878 51.65592907 -46.34733766 53.21255852 -47.90234375 54.76953125 C-48.6376683 55.50283157 -49.37299286 56.2361319 -50.13059998 56.99165344 C-51.14284386 58.00862556 -51.14284386 58.00862556 -52.17553711 59.04614258 C-53.06866859 59.94046745 -53.06866859 59.94046745 -53.97984314 60.8528595 C-56.69032132 63.81003853 -56.51056866 66.10831005 -56.53613281 70.01464844 C-56.54574036 71.19637634 -56.5553479 72.37810425 -56.56524658 73.59564209 C-56.56949646 74.87892395 -56.57374634 76.16220581 -56.578125 77.484375 C-56.58382507 78.79907776 -56.58952515 80.11378052 -56.59539795 81.46832275 C-56.60590946 84.255904 -56.61175053 87.04345641 -56.61523438 89.83105469 C-56.62070699 93.39312153 -56.64470737 96.95480378 -56.67320633 100.51675034 C-56.69638357 103.92261759 -56.69828635 107.32843299 -56.703125 110.734375 C-56.7154718 112.00955994 -56.7278186 113.28474487 -56.74053955 114.59857178 C-56.73753845 115.79290833 -56.73453735 116.98724487 -56.73144531 118.21777344 C-56.73509094 119.26431091 -56.73873657 120.31084839 -56.74249268 121.38909912 C-56.20440229 125.76111705 -54.64887658 128.89413757 -51.78465271 132.22375488 C-47.9083253 134.07572425 -44.06191425 133.80853847 -39.82055664 133.79492188 C-38.85264694 133.80339142 -37.88473724 133.81186096 -36.88749695 133.82058716 C-33.68658322 133.8439945 -30.48614911 133.84497842 -27.28515625 133.84375 C-25.06082465 133.85084919 -22.8364949 133.85854783 -20.61216736 133.86682129 C-15.9491568 133.88027462 -11.28631557 133.88183094 -6.62329102 133.87597656 C-0.64638804 133.87007907 5.32970304 133.90067085 11.30644894 133.94109344 C15.90039959 133.96693659 20.49415386 133.96985092 25.08816719 133.96620178 C27.29180505 133.96789612 29.49545168 133.9775687 31.69901848 133.99534607 C34.78028663 134.01746875 37.85989987 134.00786728 40.94116211 133.99023438 C41.8519754 134.00349762 42.7627887 134.01676086 43.70120239 134.03042603 C48.01464778 133.97303957 50.06583675 133.76427345 53.68782043 131.24275208 C55.99459167 127.82786575 56.26764249 125.97336527 56.30371094 121.87573242 C56.32592712 120.58056198 56.34814331 119.28539154 56.37103271 117.95097351 C56.36871913 116.54413513 56.36479317 115.1372986 56.359375 113.73046875 C56.36783125 112.2770364 56.37747335 110.82361052 56.38824463 109.37019348 C56.40461958 106.3262243 56.40194412 103.28298253 56.38671875 100.23901367 C56.36946612 96.35463494 56.40651466 92.47296801 56.45898056 88.58898449 C56.49221214 85.58693639 56.49263728 82.5855303 56.48383331 79.58333778 C56.48419125 78.15249509 56.49536265 76.7216097 56.51793671 75.29094505 C56.76419641 65.88079194 56.76419641 65.88079194 52.50585938 57.84179688 C51.24341467 56.65221944 49.94976879 55.49475389 48.625 54.375 C47.48623335 53.28084252 46.34914826 52.18493185 45.21386719 51.0871582 C44.0359997 50.00946803 42.85523377 48.93493881 41.671875 47.86328125 C36.22413261 42.8536682 30.91105846 37.73899052 25.703125 32.48046875 C25.05661987 31.82837433 24.41011475 31.17627991 23.74401855 30.50442505 C21.10676386 27.83995797 18.47387716 25.17124322 15.84472656 22.4987793 C13.88516198 20.50920209 11.91956525 18.52574697 9.953125 16.54296875 C9.35945129 15.93583542 8.76577759 15.32870209 8.15411377 14.70317078 C4.84165235 11.35643834 4.84165235 11.35643834 0.625 9.375 Z " fill="#298937" transform="translate(248.375,226.625)"/>
<path d="M0 0 C5.61 0.33 11.22 0.66 17 1 C17.495 20.8 17.495 20.8 18 41 C32.85 41.33 47.7 41.66 63 42 C62.67 41.01 62.34 40.02 62 39 C61.914591 36.05035887 61.88417073 33.12496981 61.90234375 30.17578125 C61.9037587 29.31438034 61.90517365 28.45297943 61.90663147 27.56547546 C61.9122286 24.81444831 61.92478054 22.06350256 61.9375 19.3125 C61.94251537 17.4472668 61.94707821 15.58203233 61.95117188 13.71679688 C61.96134616 9.14447466 61.98092213 4.57232845 62 0 C67.94 0.33 73.88 0.66 80 1 C80 34 80 67 80 101 C74.39 101 68.78 101 63 101 C62.97494385 99.70263916 62.9498877 98.40527832 62.92407227 97.06860352 C62.83018248 92.27341144 62.72991751 87.4783705 62.62768555 82.68334961 C62.58426666 80.60460943 62.54259688 78.52583197 62.50268555 76.44702148 C62.44515079 73.46586855 62.38140881 70.48490451 62.31640625 67.50390625 C62.29969376 66.56849503 62.28298126 65.6330838 62.26576233 64.66932678 C62.2358445 63.37810158 62.2358445 63.37810158 62.20532227 62.06079102 C62.18977798 61.29912125 62.1742337 60.53745148 62.15821838 59.75270081 C62.18620671 57.97264994 62.18620671 57.97264994 61 57 C59.64905018 56.90731001 58.29332909 56.88252674 56.93920898 56.88647461 C56.06631226 56.88659546 55.19341553 56.88671631 54.29406738 56.88684082 C53.37073608 56.89195679 52.44740479 56.89707275 51.49609375 56.90234375 C50.6517981 56.90335083 49.80750244 56.90435791 48.93762207 56.90539551 C45.77090098 56.9106443 42.60419919 56.92460544 39.4375 56.9375 C28.8259375 56.9684375 28.8259375 56.9684375 18 57 C17.67 71.52 17.34 86.04 17 101 C11.39 101 5.78 101 0 101 C-1.72245608 97.55508785 -1.13784976 93.58382391 -1.12939453 89.79272461 C-1.13114685 88.83818893 -1.13289917 87.88365326 -1.13470459 86.90019226 C-1.13911826 83.73422445 -1.13618703 80.56831216 -1.1328125 77.40234375 C-1.13348562 75.21041351 -1.13445572 73.01848333 -1.13571167 70.82655334 C-1.13718794 66.22900686 -1.13503614 61.63147978 -1.13037109 57.03393555 C-1.1246705 51.12639035 -1.12795536 45.21889054 -1.13394356 39.31134701 C-1.13754821 34.78450678 -1.13641108 30.25767741 -1.13381577 25.73083687 C-1.1331464 23.55182452 -1.13397523 21.37281119 -1.13629532 19.19379997 C-1.13882064 16.1551335 -1.13498311 13.11654173 -1.12939453 10.07788086 C-1.13141876 9.16824585 -1.13344299 8.25861084 -1.13552856 7.32141113 C-1.11426301 1.11426301 -1.11426301 1.11426301 0 0 Z " fill="#FBFDFD" transform="translate(544,268)"/>
<path d="M0 0 C0.91652344 -0.02900391 1.83304688 -0.05800781 2.77734375 -0.08789062 C11.62458176 -0.16992636 17.75643561 2.78968907 24.27734375 8.671875 C29.05408076 13.99343878 29.87907748 21.13117592 29.86352539 28.02075195 C29.86341209 29.70192863 29.86341209 29.70192863 29.86329651 31.41706848 C29.85813522 32.6161937 29.85297394 33.81531891 29.84765625 35.05078125 C29.8462413 36.28668503 29.84482635 37.52258881 29.84336853 38.79594421 C29.83872618 42.06908345 29.82975311 45.34217287 29.81866455 48.61529541 C29.80840404 51.96032248 29.80394631 55.30535173 29.79882812 58.65039062 C29.78780907 65.2044465 29.77107836 71.75846918 29.75 78.3125 C27.81440687 78.44754138 25.876128 78.54451129 23.9375 78.625 C22.85855469 78.68300781 21.77960938 78.74101562 20.66796875 78.80078125 C17.75 78.3125 17.75 78.3125 15.86328125 76.04296875 C14.75 73.3125 14.75 73.3125 14.75 69.3125 C14.06035156 69.93898438 13.37070313 70.56546875 12.66015625 71.2109375 C6.88216189 76.23596963 2.50211466 79.84108762 -5.25 80.3125 C-6.136875 80.37953125 -7.02375 80.4465625 -7.9375 80.515625 C-15.42489576 80.8068015 -21.59125137 79.5576412 -28 75.625 C-34.1492383 69.30494952 -36.69710538 63.27939878 -36.58203125 54.5546875 C-35.95782877 48.45953383 -33.77758478 43.62497118 -29.23046875 39.46484375 C-21.04766688 33.63226869 -12.2922361 31.88736071 -2.4375 31.125 C-1.51001953 31.04314453 -0.58253906 30.96128906 0.37304688 30.87695312 C4.19049844 30.54942844 7.91433011 30.3125 11.75 30.3125 C12.07069726 23.06270508 12.07069726 23.06270508 9.75 16.3125 C2.55566405 13.20906096 -4.12200606 14.00828375 -11.4375 16.25 C-12.62730469 16.60964844 -13.81710937 16.96929687 -15.04296875 17.33984375 C-16.63044922 17.82130859 -16.63044922 17.82130859 -18.25 18.3125 C-19.58038449 18.6574145 -20.91229678 18.99716053 -22.25 19.3125 C-23.28320481 17.71627344 -24.30122429 16.11020894 -25.3125 14.5 C-25.88097656 13.60667969 -26.44945312 12.71335937 -27.03515625 11.79296875 C-28.25 9.3125 -28.25 9.3125 -27.25 6.3125 C-24.44921875 4.9609375 -24.44921875 4.9609375 -20.9375 3.6875 C-19.78636719 3.26210938 -18.63523437 2.83671875 -17.44921875 2.3984375 C-11.49092798 0.37596517 -6.26900073 0.06503113 0 0 Z M12.75 28.3125 C13.75 31.3125 13.75 31.3125 13.75 31.3125 Z M7.75 31.3125 C7.75 31.6425 7.75 31.9725 7.75 32.3125 C9.4 32.3125 11.05 32.3125 12.75 32.3125 C12.75 31.9825 12.75 31.6525 12.75 31.3125 C11.1 31.3125 9.45 31.3125 7.75 31.3125 Z M-16.25 49.3125 C-18.96516865 53.75550324 -18.1374089 57.39141426 -17.25 62.3125 C-16.38551642 64.56823944 -16.38551642 64.56823944 -13.75 65.4375 C-6.61087509 67.22228123 -0.79619884 66.96326474 5.75 63.3125 C9.82635421 59.76784417 11.51892563 57.60327436 12.06640625 52.17578125 C12.14761719 51.00402344 12.22882813 49.83226562 12.3125 48.625 C12.39628906 47.44550781 12.48007813 46.26601563 12.56640625 45.05078125 C12.65728516 43.69533203 12.65728516 43.69533203 12.75 42.3125 C2.90982954 41.89010795 -9.04260303 41.407613 -16.25 49.3125 Z M-35.25 51.3125 C-34.25 53.3125 -34.25 53.3125 -34.25 53.3125 Z " fill="#FBFDFD" transform="translate(1104.25,290.6875)"/>
<path d="M0 0 C1.44763131 0.88893998 2.86931107 1.82277843 4.25 2.8125 C4.82878906 3.19664062 5.40757813 3.58078125 6.00390625 3.9765625 C12.80953985 8.99123989 16.37427634 16.81599387 18.25 24.8125 C18.25 30.4225 18.25 36.0325 18.25 41.8125 C1.75 41.8125 -14.75 41.8125 -31.75 41.8125 C-31.29290819 49.24821861 -31.29290819 49.24821861 -28.625 55.1875 C-28.25117187 55.81398438 -27.87734375 56.44046875 -27.4921875 57.0859375 C-23.11244273 61.42640205 -17.93724437 62.18401061 -12.03662109 62.22851562 C-11.24078613 62.21498047 -10.44495117 62.20144531 -9.625 62.1875 C-8.79693848 62.18169922 -7.96887695 62.17589844 -7.11572266 62.16992188 C-0.00559775 62.02124937 6.41086866 60.78668224 13.25 58.8125 C13.58 58.8125 13.91 58.8125 14.25 58.8125 C14.25 63.4325 14.25 68.0525 14.25 72.8125 C1.70880745 79.08309627 -13.22038684 79.32217692 -26.62890625 75.92578125 C-33.4760289 73.48344088 -39.84078459 69.03170633 -43.75 62.8125 C-43.75 62.1525 -43.75 61.4925 -43.75 60.8125 C-44.41 60.8125 -45.07 60.8125 -45.75 60.8125 C-46.39910154 59.23050369 -47.04414694 57.64684276 -47.6875 56.0625 C-48.04714844 55.18078125 -48.40679688 54.2990625 -48.77734375 53.390625 C-52.69775741 42.99916711 -52.04540149 29.67440098 -48.015625 19.4296875 C-44.82479491 12.83136602 -41.05954909 6.80256496 -34.75 2.8125 C-34.02683594 2.34714844 -33.30367187 1.88179688 -32.55859375 1.40234375 C-23.05931288 -3.80413233 -9.91691088 -4.72591063 0 0 Z M-28.359375 17.75 C-30.82463942 21.40634724 -32.45991781 24.26902602 -31.75 28.8125 C-28.80383462 30.28558269 -26.27237406 29.81544692 -22.9921875 29.69140625 C-22.32913605 29.66779526 -21.66608459 29.64418427 -20.98294067 29.61985779 C-18.86340871 29.54323184 -16.74424315 29.45920357 -14.625 29.375 C-13.18882006 29.32177819 -11.7526222 29.2690378 -10.31640625 29.21679688 C-6.79404564 29.08761856 -3.27197648 28.9517997 0.25 28.8125 C0.58 26.8325 0.91 24.8525 1.25 22.8125 C0.59 22.8125 -0.07 22.8125 -0.75 22.8125 C-0.8325 21.905 -0.915 20.9975 -1 20.0625 C-1.86079355 16.33239463 -2.80133935 15.17142852 -5.75 12.8125 C-13.94608231 8.07280313 -22.5034008 10.70008931 -28.359375 17.75 Z M1.25 27.8125 C2.25 29.8125 2.25 29.8125 2.25 29.8125 Z M-49.75 28.8125 C-48.75 31.8125 -48.75 31.8125 -48.75 31.8125 Z M-14.75 63.8125 C-14.75 64.1425 -14.75 64.4725 -14.75 64.8125 C-11.45 64.8125 -8.15 64.8125 -4.75 64.8125 C-4.75 64.4825 -4.75 64.1525 -4.75 63.8125 C-8.05 63.8125 -11.35 63.8125 -14.75 63.8125 Z " fill="#FBFDFD" transform="translate(1261.75,293.1875)"/>
<path d="M0 0 C9.92358699 5.89863562 16.18378916 13.54410321 19.0625 24.6875 C21.57689478 36.78975178 21.44785492 50.82731484 15.1875 61.875 C9.77464236 69.41086467 3.36162404 74.40641681 -5.6875 76.5 C-6.63882813 76.77070313 -6.63882813 76.77070313 -7.609375 77.046875 C-16.75768643 79.0416196 -26.29673656 77.42199845 -34.6875 73.5 C-43.56151856 67.34621873 -49.13772584 59.91157781 -51.6875 49.5 C-52.0175 49.17 -52.3475 48.84 -52.6875 48.5 C-53.91238475 36.26355642 -53.70368893 24.43246521 -47.6875 13.5 C-47.31496094 12.79875 -46.94242188 12.0975 -46.55859375 11.375 C-37.460268 -3.33448831 -14.85602099 -6.94542637 0 0 Z M-30.296875 17.20703125 C-35.23662105 24.80552296 -36.32613885 35.11976893 -35.2734375 43.98828125 C-33.75696259 50.67910188 -31.89211592 56.17665346 -26.1875 60.3125 C-21.14237016 62.70893668 -16.20822564 63.03767067 -10.6875 62.5 C-6.49708474 60.91871122 -3.49182829 59.00541036 -0.6875 55.5 C1.04009248 51.19985548 1.55178792 47.62523156 1.5078125 43.0078125 C1.49814453 41.20957031 1.49814453 41.20957031 1.48828125 39.375 C1.47152344 38.1375 1.45476563 36.9 1.4375 35.625 C1.42847656 34.36429687 1.41945313 33.10359375 1.41015625 31.8046875 C1.38665808 28.7029296 1.35380334 25.60156348 1.3125 22.5 C0.6525 22.5 -0.0075 22.5 -0.6875 22.5 C-0.749375 21.7575 -0.81125 21.015 -0.875 20.25 C-1.9555721 16.59267905 -3.53961997 15.57473911 -6.6875 13.5 C-14.37243714 9.34597992 -24.27814097 10.82308278 -30.296875 17.20703125 Z M-51.6875 26.5 C-50.6875 28.5 -50.6875 28.5 -50.6875 28.5 Z M2.3125 31.5 C2.3125 35.79 2.3125 40.08 2.3125 44.5 C2.6425 44.5 2.9725 44.5 3.3125 44.5 C3.3125 40.21 3.3125 35.92 3.3125 31.5 C2.9825 31.5 2.6525 31.5 2.3125 31.5 Z " fill="#FBFDFD" transform="translate(695.6875,293.5)"/>
<path d="M0 0 C0.77601562 0.350625 1.55203125 0.70125 2.3515625 1.0625 C3.7021857 1.68827137 5.04360289 2.33430144 6.375 3 C5.83648032 8.27749285 4.60156164 12.25645564 2.375 17 C-1.65755287 16.57100501 -5.1806686 15.87603328 -9 14.5 C-18.1020759 11.3994615 -25.52122542 11.63421158 -34.625 15 C-42.95360945 19.11547703 -46.74470604 26.73774387 -49.76953125 35.203125 C-50.84350495 39.96980279 -50.95497915 44.44280857 -50.9375 49.3125 C-50.95361328 50.19873047 -50.96972656 51.08496094 -50.98632812 51.99804688 C-50.99364364 62.02762354 -48.49826296 71.44865728 -41.625 79 C-35.27152307 83.50972284 -28.5677399 84.19471365 -20.9375 84.1875 C-20.22996582 84.18814453 -19.52243164 84.18878906 -18.79345703 84.18945312 C-13.98093848 84.14116332 -9.51097252 83.65267156 -4.8359375 82.4375 C-2.625 82 -2.625 82 3.375 82 C3.375 86.95 3.375 91.9 3.375 97 C-12.7836094 101.17582041 -30.11367406 104.06676313 -46 96.93359375 C-48.0110631 95.74345289 -49.79901836 94.45681579 -51.625 93 C-52.30046875 92.49597656 -52.9759375 91.99195313 -53.671875 91.47265625 C-62.44602727 84.46323009 -67.02926604 74.79519946 -69.625 64 C-69.7265625 61.14453125 -69.7265625 61.14453125 -69.625 59 C-69.955 59 -70.285 59 -70.625 59 C-71.33882478 40.57935494 -69.60855489 23.55840743 -56.625 9.25 C-41.80968394 -4.66590396 -18.50949329 -8.41903374 0 0 Z M-69.625 40 C-68.625 44 -68.625 44 -68.625 44 Z " fill="#FBFDFD" transform="translate(1051.625,270)"/>
<path d="M0 0 C8.3218846 6.11608386 12.58578257 12.86641285 14.59375 22.90625 C14.59375 28.51625 14.59375 34.12625 14.59375 39.90625 C-1.90625 39.90625 -18.40625 39.90625 -35.40625 39.90625 C-33.80161653 49.2938905 -33.80161653 49.2938905 -29.40625 56.90625 C-23.77936386 59.99850275 -19.00465003 60.38158909 -12.65625 60.28125 C-11.77533691 60.27617432 -10.89442383 60.27109863 -9.98681641 60.26586914 C-4.12039365 60.15294942 1.13114014 59.4395106 6.6953125 57.46484375 C8.59375 56.90625 8.59375 56.90625 10.59375 57.90625 C10.59375 62.19625 10.59375 66.48625 10.59375 70.90625 C-1.90654573 77.01750569 -16.37788904 77.64412514 -29.6875 73.87890625 C-39.87459206 70.23438625 -46.71829186 63.07935777 -51.4609375 53.53125 C-55.32379825 42.80462842 -55.29699451 26.68248766 -50.66015625 16.26171875 C-50.24636719 15.48441406 -49.83257813 14.70710938 -49.40625 13.90625 C-48.98214844 13.09800781 -48.55804687 12.28976562 -48.12109375 11.45703125 C-43.81177079 4.19480174 -37.01438911 -0.9530641 -28.953125 -3.61328125 C-18.80970967 -5.52683966 -9.05581266 -5.27426452 0 0 Z M-30.40625 13.90625 C-32.55957354 17.07230052 -34.31185429 20.22836278 -35.40625 23.90625 C-35.07625 25.22625 -34.74625 26.54625 -34.40625 27.90625 C-23.84625 27.57625 -13.28625 27.24625 -2.40625 26.90625 C-3.8206646 16.74118979 -3.8206646 16.74118979 -10.03125 10.09375 C-17.67807791 7.40319944 -24.45741623 8.08645817 -30.40625 13.90625 Z M-18.40625 61.90625 C-18.40625 62.23625 -18.40625 62.56625 -18.40625 62.90625 C-15.10625 62.90625 -11.80625 62.90625 -8.40625 62.90625 C-8.40625 62.57625 -8.40625 62.24625 -8.40625 61.90625 C-11.70625 61.90625 -15.00625 61.90625 -18.40625 61.90625 Z " fill="#FBFDFD" transform="translate(916.40625,295.09375)"/>
<path d="M0 0 C1.45019531 -0.01063477 1.45019531 -0.01063477 2.9296875 -0.02148438 C8.24933012 0.02680847 8.24933012 0.02680847 10.375 0.4375 C12.77619059 4.03928588 12.81271322 6.94616369 13 11.125 C13.05800781 12.1778418 13.05800781 12.1778418 13.1171875 13.25195312 C13.2112334 14.98004655 13.2941968 16.70873675 13.375 18.4375 C14.42300781 18.47488281 15.47101563 18.51226562 16.55078125 18.55078125 C17.92972305 18.61644515 19.30862771 18.68289235 20.6875 18.75 C21.37779297 18.77255859 22.06808594 18.79511719 22.77929688 18.81835938 C27.8817528 19.08950438 27.8817528 19.08950438 30.07788086 20.63891602 C31.84491169 23.08907904 31.73292988 24.72397734 31.703125 27.7265625 C31.69796875 28.75007813 31.6928125 29.77359375 31.6875 30.828125 C31.666875 31.89546875 31.64625 32.9628125 31.625 34.0625 C31.61984375 35.13757813 31.6146875 36.21265625 31.609375 37.3203125 C31.52893814 45.28356186 31.52893814 45.28356186 30.375 46.4375 C26.95029995 46.70787106 23.53260696 46.88379658 20.1015625 47.04296875 C16.43312952 46.89908649 16.43312952 46.89908649 13.375 48.4375 C13.13809039 51.83320436 12.9785831 55.22166702 12.85742188 58.62304688 C12.58828125 64.22421875 12.58828125 64.22421875 10.375 66.4375 C8.17602539 66.69628906 8.17602539 66.69628906 5.47265625 66.703125 C4.50005859 66.70570313 3.52746094 66.70828125 2.52539062 66.7109375 C0.99688477 66.69933594 0.99688477 66.69933594 -0.5625 66.6875 C-1.57763672 66.69523437 -2.59277344 66.70296875 -3.63867188 66.7109375 C-4.61255859 66.70835937 -5.58644531 66.70578125 -6.58984375 66.703125 C-7.4830835 66.70086914 -8.37632324 66.69861328 -9.29663086 66.69628906 C-11.625 66.4375 -11.625 66.4375 -14.625 64.4375 C-15.05737305 62.55810547 -15.05737305 62.55810547 -15.13671875 60.3046875 C-15.18989258 59.09619141 -15.18989258 59.09619141 -15.24414062 57.86328125 C-15.26669922 57.02152344 -15.28925781 56.17976563 -15.3125 55.3125 C-15.34666016 54.46300781 -15.38082031 53.61351562 -15.41601562 52.73828125 C-15.49859173 50.63848895 -15.56346978 48.53801436 -15.625 46.4375 C-17.30529297 46.48970703 -17.30529297 46.48970703 -19.01953125 46.54296875 C-20.49217251 46.57110839 -21.96482998 46.59840837 -23.4375 46.625 C-24.17548828 46.65013672 -24.91347656 46.67527344 -25.67382812 46.70117188 C-31.1634104 46.77569109 -31.1634104 46.77569109 -33.33276367 45.1862793 C-35.75658231 41.90613327 -35.13682261 37.99942986 -35.125 34.0625 C-35.15335938 33.21171875 -35.18171875 32.3609375 -35.2109375 31.484375 C-35.2242922 27.19751631 -34.9984377 25.00086968 -32.58203125 21.35546875 C-28.90647303 18.9714541 -26.03885207 18.86211686 -21.8125 19.125 C-21.11962891 19.14755859 -20.42675781 19.17011719 -19.71289062 19.19335938 C-18.01598427 19.25187339 -16.32020139 19.3415452 -14.625 19.4375 C-14.67140625 18.40109375 -14.7178125 17.3646875 -14.765625 16.296875 C-14.80315275 14.92711221 -14.83955184 13.55731818 -14.875 12.1875 C-14.90851563 11.50558594 -14.94203125 10.82367188 -14.9765625 10.12109375 C-15.03781464 6.96660879 -14.80217292 4.75958603 -13.2734375 1.98046875 C-9.02729675 -0.49331532 -4.8185873 -0.10038724 0 0 Z " fill="#2A8C39" transform="translate(249.625,275.5625)"/>
<path d="M0 0 C7.20918316 4.92099118 10.99402483 10.46943635 13 18.9375 C13.45245767 22.69766319 13.52469721 26.40265192 13.5 30.1875 C13.49355469 31.23454102 13.48710937 32.28158203 13.48046875 33.36035156 C12.98504426 54.94391056 5.13193004 76.55294887 -6 94.9375 C-15.77573103 90.63974125 -23.57067314 80.49394462 -31 72.9375 C-29.30129835 68.77261102 -26.31673302 65.69513021 -23.375 62.375 C-7.0569489 43.71315529 -7.0569489 43.71315529 -0.875 20.4375 C-0.87242187 19.4990625 -0.86984375 18.560625 -0.8671875 17.59375 C-0.98607132 15.2160737 -1.32448278 13.21066904 -2 10.9375 C-6.6555981 9.44770861 -10.90266333 9.00682763 -15.46484375 11.03125 C-20.53177107 13.89615928 -24.28450237 16.84989293 -27.6484375 21.6171875 C-29 22.9375 -29 22.9375 -33 22.9375 C-33.6796875 21.234375 -33.6796875 21.234375 -34 18.9375 C-29.98035053 10.67332556 -22.40013056 2.46105071 -13.8125 -1.0625 C-8.24973426 -2.5215861 -5.02762286 -2.88516994 0 0 Z " fill="#FBFDFD" transform="translate(282,24.0625)"/>
<path d="M0 0 C4.83337624 2.96919448 8.30036073 6.4010822 10.125 11.875 C10.2734944 14.49364161 10.3560027 17.0682477 10.375 19.6875 C10.395625 20.38681641 10.41625 21.08613281 10.4375 21.80664062 C10.48192998 27.74359614 9.14453553 31.79606637 5 36.0625 C-4.36158686 41.96436998 -15.46214869 42.3646639 -26.140625 40.21875 C-33.3210607 37.94298349 -37.16570483 34.34674324 -41.00390625 28.01171875 C-43.38805634 22.16360172 -42.57453885 14.73805377 -40.375 8.9375 C-37.99689721 4.26592441 -34.53952314 2.03787945 -29.875 -0.125 C-29.15570312 -0.48851563 -28.43640625 -0.85203125 -27.6953125 -1.2265625 C-19.48926329 -3.8406779 -7.7960511 -3.66803615 0 0 Z " fill="#FBFDFD" transform="translate(859.875,26.125)"/>
<path d="M0 0 C0.66 0.33 1.32 0.66 2 1 C1.85890014 3.10448938 1.71195825 5.2085877 1.5625 7.3125 C1.48128906 8.48425781 1.40007812 9.65601563 1.31640625 10.86328125 C1 14 1 14 0 17 C-0.70125 16.96519531 -1.4025 16.93039062 -2.125 16.89453125 C-9.88132793 16.67322298 -15.47104252 17.35328189 -21.75 22.0625 C-27.16991935 29.13850581 -28.59730506 36.64981442 -28.609375 45.3828125 C-28.62591125 46.32309296 -28.64244751 47.26337341 -28.65948486 48.23214722 C-28.70755729 51.19650059 -28.7292445 54.16034263 -28.75 57.125 C-28.77819383 59.15106684 -28.80812596 61.17711027 -28.83984375 63.203125 C-28.91330487 68.13537448 -28.96312748 73.06734683 -29 78 C-34.28 78 -39.56 78 -45 78 C-46.47680054 75.04639891 -46.13549508 72.40011192 -46.14526367 69.10351562 C-46.14862228 68.39442551 -46.1519809 67.68533539 -46.15544128 66.95475769 C-46.16495897 64.60523743 -46.16689467 62.25578835 -46.16796875 59.90625 C-46.17118031 58.27722138 -46.1745443 56.64819305 -46.17805481 55.01916504 C-46.1840478 51.6027764 -46.18589449 48.18641306 -46.18530273 44.77001953 C-46.185201 40.38484397 -46.1988643 35.99982992 -46.21607494 31.61469269 C-46.22717288 28.25017547 -46.22922264 24.8856976 -46.22869301 21.52116394 C-46.22987604 19.90398094 -46.23431578 18.28679701 -46.24202538 16.66963196 C-46.25178279 14.41179963 -46.24896451 12.15432196 -46.24291992 9.89648438 C-46.24505745 7.96693909 -46.24505745 7.96693909 -46.24723816 5.99841309 C-46 3 -46 3 -44 1 C-41.6875 0.76953125 -41.6875 0.76953125 -39 0.8125 C-37.6696875 0.82216797 -37.6696875 0.82216797 -36.3125 0.83203125 C-34 1 -34 1 -32 2 C-30.8422494 5.47325181 -30.93133348 8.36067448 -31 12 C-28.3084905 10.90345909 -26.83571676 9.82632915 -24.8125 7.6875 C-17.23829394 0.44992532 -10.39207464 -1.04368038 0 0 Z " fill="#FBFDFD" transform="translate(1201,291)"/>
<path d="M0 0 C0.33 0 0.66 0 1 0 C1 57.75 1 115.5 1 175 C0.67 175 0.34 175 0 175 C0 117.25 0 59.5 0 0 Z " fill="#FBFDFD" transform="translate(546,41)"/>
<path d="M0 0 C0.33 0 0.66 0 1 0 C1 44.55 1 89.1 1 135 C0.67 135 0.34 135 0 135 C0 90.45 0 45.9 0 0 Z " fill="#FBFDFD" transform="translate(900,81)"/>
<path d="M0 0 C0.33 0 0.66 0 1 0 C1 44.55 1 89.1 1 135 C0.67 135 0.34 135 0 135 C0 90.45 0 45.9 0 0 Z " fill="#FBFDFD" transform="translate(701,81)"/>
<path d="M0 0 C0.33 0 0.66 0 1 0 C1 23.43 1 46.86 1 71 C0.67 71 0.34 71 0 71 C0 47.57 0 24.14 0 0 Z " fill="#FBFDFD" transform="translate(732,295)"/>
<path d="M0 0 C0.33 0 0.66 0 1 0 C1 15.51 1 31.02 1 47 C0.67 47 0.34 47 0 47 C0 31.49 0 15.98 0 0 Z " fill="#2A8C39" transform="translate(182,304)"/>
<path d="M0 0 C14.19 0 28.38 0 43 0 C43 0.33 43 0.66 43 1 C28.81 1 14.62 1 0 1 C0 0.67 0 0.34 0 0 Z " fill="#FBFDFD" transform="translate(562,308)"/>
<path d="M0 0 C0.33 0 0.66 0 1 0 C1 13.2 1 26.4 1 40 C0.67 40 0.34 40 0 40 C0 26.8 0 13.6 0 0 Z " fill="#FBFDFD" transform="translate(605,327)"/>
<path d="M0 0 C0.33 0 0.66 0 1 0 C1 12.21 1 24.42 1 37 C0.67 37 0.34 37 0 37 C0 24.79 0 12.58 0 0 Z " fill="#FBFDFD" transform="translate(605,270)"/>
<path d="M0 0 C0.33 0 0.66 0 1 0 C1 5.94 1 11.88 1 18 C0.67 18 0.34 18 0 18 C0 12.06 0 6.12 0 0 Z " fill="#FBFDFD" transform="translate(1144,141)"/>
<path d="M0 0 C0.33 0 0.66 0 1 0 C1 4.62 1 9.24 1 14 C0.67 14 0.34 14 0 14 C0 9.38 0 4.76 0 0 Z " fill="#FBFDFD" transform="translate(862,325)"/>
<path d="M0 0 C4.29 0 8.58 0 13 0 C13 0.33 13 0.66 13 1 C8.71 1 4.42 1 0 1 C0 0.67 0 0.34 0 0 Z " fill="#FBFDFD" transform="translate(608,267)"/>
<path d="M0 0 C4.29 0 8.58 0 13 0 C13 0.33 13 0.66 13 1 C8.71 1 4.42 1 0 1 C0 0.67 0 0.34 0 0 Z " fill="#FBFDFD" transform="translate(545,267)"/>
<path d="M0 0 C3.63 0 7.26 0 11 0 C11 0.33 11 0.66 11 1 C7.37 1 3.74 1 0 1 C0 0.67 0 0.34 0 0 Z " fill="#FBFDFD" transform="translate(839,23)"/>
<path d="M0 0 C2.64 0 5.28 0 8 0 C8 0.33 8 0.66 8 1 C5.36 1 2.72 1 0 1 C0 0.67 0 0.34 0 0 Z " fill="#FBFDFD" transform="translate(895,290)"/>
<path d="M0 0 C2.64 0 5.28 0 8 0 C8 0.33 8 0.66 8 1 C5.36 1 2.72 1 0 1 C0 0.67 0 0.34 0 0 Z " fill="#FBFDFD" transform="translate(676,290)"/>
<path d="M0 0 C2.64 0 5.28 0 8 0 C8 0.33 8 0.66 8 1 C5.36 1 2.72 1 0 1 C0 0.67 0 0.34 0 0 Z " fill="#FBFDFD" transform="translate(154,59)"/>
<path d="M0 0 C2.31 0 4.62 0 7 0 C7 0.33 7 0.66 7 1 C4.69 1 2.38 1 0 1 C0 0.67 0 0.34 0 0 Z " fill="#FBFDFD" transform="translate(1244,290)"/>
<path d="M0 0 C2.31 0 4.62 0 7 0 C7 0.33 7 0.66 7 1 C4.69 1 2.38 1 0 1 C0 0.67 0 0.34 0 0 Z " fill="#FBFDFD" transform="translate(1102,290)"/>
<path d="M0 0 C1.98 0 3.96 0 6 0 C6 0.33 6 0.66 6 1 C4.02 1 2.04 1 0 1 C0 0.67 0 0.34 0 0 Z " fill="#FBFDFD" transform="translate(818,290)"/>
<path d="M0 0 C1.98 0 3.96 0 6 0 C6 0.33 6 0.66 6 1 C4.02 1 2.04 1 0 1 C0 0.67 0 0.34 0 0 Z " fill="#FBFDFD" transform="translate(770,290)"/>
<path d="M0 0 C1.65 0 3.3 0 5 0 C5 0.33 5 0.66 5 1 C3.35 1 1.7 1 0 1 C0 0.67 0 0.34 0 0 Z " fill="#FBFDFD" transform="translate(1193,290)"/>
<path d="M0 0 C1 4 1 4 1 4 Z " fill="#FBFDFD" transform="translate(642,329)"/>
<path d="" fill="#2A8C39" transform="translate(0,0)"/>
<path d="" fill="#2A8C39" transform="translate(0,0)"/>
<path d="" fill="#2A8C39" transform="translate(0,0)"/>
<path d="" fill="#2A8C39" transform="translate(0,0)"/>
<path d="" fill="#2A8C39" transform="translate(0,0)"/>
<path d="" fill="#2A8C39" transform="translate(0,0)"/>
<path d="" fill="#2A8C39" transform="translate(0,0)"/>
<path d="" fill="#2A8C39" transform="translate(0,0)"/>
<path d="" fill="#2A8C39" transform="translate(0,0)"/>
<path d="" fill="#2A8C39" transform="translate(0,0)"/>
<path d="" fill="#2A8C39" transform="translate(0,0)"/>
<path d="" fill="#2A8C39" transform="translate(0,0)"/>
<path d="" fill="#2A8C39" transform="translate(0,0)"/>
<path d="" fill="#2A8C39" transform="translate(0,0)"/>
<path d="" fill="#2A8C39" transform="translate(0,0)"/>
<path d="" fill="#2A8C39" transform="translate(0,0)"/>
<path d="" fill="#2A8C39" transform="translate(0,0)"/>
<path d="" fill="#2A8C39" transform="translate(0,0)"/>
<path d="" fill="#2A8C39" transform="translate(0,0)"/>
<path d="" fill="#2A8C39" transform="translate(0,0)"/>
<path d="" fill="#2A8C39" transform="translate(0,0)"/>
</svg>
